<?xml version="1.0" encoding="utf-8"?>
<!-- Generator: Adobe Illustrator 24.3.0, SVG Export Plug-In . SVG Version: 6.00 Build 0)  -->
<svg version="1.1" id="Ebene_1" xmlns="http://www.w3.org/2000/svg" xmlns:xlink="http://www.w3.org/1999/xlink" x="0px" y="0px"
	 viewBox="0 0 29.7 13" style="enable-background:new 0 0 29.7 13;" xml:space="preserve">
<style type="text/css">
	.st0{fill:#FFFFFF;}
	.st1{fill:#EC483B;}
</style>
<g id="Ebene_2_1_">
	<g id="Ebene_1-2">
		<path class="st0" d="M4.5,5.4C4.1,5.2,3.7,5.1,3.3,5.1c-0.2,0-0.3,0-0.5,0.1C2.7,5.3,2.6,5.4,2.6,5.5c0,0.1,0,0.1,0,0.2
			c0,0.1,0.1,0.1,0.1,0.1C2.8,5.9,2.9,5.9,3,5.9L3.6,6c0.5,0.1,1,0.3,1.3,0.6C5.2,7,5.4,7.4,5.4,7.9c0,0.3-0.1,0.7-0.2,1
			C5,9.2,4.8,9.4,4.5,9.6C4.3,9.8,4,10,3.6,10.1c-0.4,0.1-0.8,0.2-1.2,0.2c-0.9,0-1.7-0.3-2.4-0.7l0.8-1.5c0.5,0.4,1.1,0.6,1.7,0.6
			c0.2,0,0.3,0,0.5-0.1c0.1-0.1,0.2-0.2,0.2-0.3c0-0.1,0-0.1,0-0.2c0-0.1-0.1-0.1-0.1-0.1C3,7.7,2.9,7.7,2.8,7.6L2.3,7.5
			c-0.5-0.1-1-0.3-1.4-0.6C0.6,6.6,0.5,6.2,0.5,5.8c0-0.3,0.1-0.6,0.2-0.9C0.8,4.6,1,4.4,1.2,4.2C1.5,4,1.8,3.8,2.1,3.7
			c0.4-0.1,0.8-0.2,1.1-0.2c0.7,0,1.3,0.2,1.9,0.4L4.5,5.4z"/>
		<path class="st0" d="M8.7,13H6.5V3.8h2.2v0.7c0.5-0.6,1.2-0.9,1.9-0.9c0.4,0,0.8,0.1,1.2,0.3c0.8,0.3,1.4,1,1.6,1.8
			c0.2,0.4,0.2,0.8,0.2,1.3c0,0.4-0.1,0.9-0.2,1.3c-0.1,0.4-0.4,0.7-0.6,1c-0.3,0.3-0.6,0.5-1,0.7c-0.4,0.2-0.8,0.3-1.2,0.2
			c-0.7,0-1.4-0.3-1.9-0.8L8.7,13z M11.4,6.9c0-0.2,0-0.4-0.1-0.6C11.2,6.2,11.1,6,11,5.9c-0.1-0.1-0.3-0.2-0.4-0.3
			c-0.2-0.1-0.4-0.1-0.6-0.1c-0.2,0-0.4,0-0.5,0.1C9.3,5.7,9.1,5.8,9,5.9C8.9,6,8.8,6.2,8.7,6.3C8.6,6.5,8.6,6.7,8.6,6.9
			c0,0.2,0,0.4,0.1,0.5C8.8,7.6,8.9,7.7,9,7.9C9.1,8,9.3,8.1,9.5,8.2C9.6,8.2,9.8,8.3,10,8.3c0.2,0,0.4,0,0.5-0.1
			C10.7,8.1,10.9,8,11,7.9c0.1-0.1,0.2-0.3,0.3-0.4C11.4,7.3,11.4,7.1,11.4,6.9z"/>
		<path class="st0" d="M19.7,3.8h2.2V10h-2.2V9.3c-0.5,0.6-1.2,0.9-1.9,0.9c-0.4,0-0.8-0.1-1.2-0.2c-0.8-0.3-1.4-1-1.6-1.7
			c-0.2-0.4-0.2-0.9-0.2-1.3c0-0.4,0.1-0.9,0.2-1.2c0.1-0.4,0.4-0.7,0.6-1c0.6-0.6,1.4-1,2.2-1c0.7,0,1.4,0.3,1.9,0.8V3.8z
			 M16.9,6.9c0,0.2,0,0.4,0.1,0.6c0.1,0.2,0.2,0.3,0.3,0.4c0.1,0.1,0.3,0.2,0.5,0.3c0.4,0.1,0.7,0.1,1.1,0C19,8.1,19.2,8,19.3,7.9
			c0.1-0.1,0.2-0.3,0.3-0.4c0.1-0.2,0.1-0.4,0.1-0.5c0-0.2,0-0.4-0.1-0.6c-0.1-0.2-0.2-0.3-0.3-0.4c-0.1-0.1-0.3-0.2-0.4-0.3
			c-0.4-0.1-0.7-0.1-1.1,0c-0.2,0.1-0.3,0.2-0.5,0.3C17.2,6,17.1,6.2,17,6.3C17,6.5,16.9,6.7,16.9,6.9z"/>
		<path class="st0" d="M25.5,0v10h-2.2V0H25.5z"/>
		<path class="st1" d="M26.9,8.8c0-0.2,0-0.4,0.1-0.6c0.1-0.2,0.2-0.3,0.3-0.4c0.1-0.1,0.3-0.2,0.5-0.3c0.2-0.1,0.4-0.1,0.5-0.1
			c0.2,0,0.4,0,0.5,0.1c0.3,0.1,0.6,0.4,0.8,0.8c0.1,0.2,0.1,0.4,0.1,0.6c0,0.2,0,0.4-0.1,0.5c-0.1,0.2-0.2,0.3-0.3,0.4
			c-0.1,0.1-0.3,0.2-0.5,0.3c-0.2,0.1-0.4,0.1-0.5,0.1c-0.2,0-0.4,0-0.5-0.1C27.4,10,27.1,9.7,27,9.3C26.9,9.2,26.9,9,26.9,8.8z"/>
	</g>
</g>
</svg>
